<svg width="16" height="17" viewBox="0 0 16 17" fill="none" xmlns="http://www.w3.org/2000/svg">
<path d="M15.8445 6.93323H15.2001V6.90003H8.00003V10.1H12.5213C11.8617 11.9628 10.0892 13.3001 8.00003 13.3001C5.34922 13.3001 3.20001 11.1508 3.20001 8.50003C3.20001 5.84922 5.34922 3.70001 8.00003 3.70001C9.22364 3.70001 10.3368 4.16162 11.1844 4.91562L13.4473 2.65281C12.0185 1.3212 10.1072 0.5 8.00003 0.5C3.58202 0.5 0 4.08202 0 8.50003C0 12.9181 3.58202 16.5001 8.00003 16.5001C12.4181 16.5001 16.0001 12.9181 16.0001 8.50003C16.0001 7.96363 15.9449 7.44003 15.8445 6.93323Z" fill="#FFC107"/>
<path d="M0.921844 4.77642L3.55026 6.70403C4.26146 4.94322 5.98387 3.70001 7.99947 3.70001C9.22308 3.70001 10.3363 4.16162 11.1839 4.91562L13.4467 2.65281C12.0179 1.3212 10.1067 0.5 7.99947 0.5C4.92666 0.5 2.26185 2.23481 0.921844 4.77642Z" fill="#FF3D00"/>
<path d="M8.00013 16.5003C10.0665 16.5003 11.9441 15.7094 13.3638 14.4234L10.8877 12.3282C10.0845 12.9366 9.08613 13.3002 8.00013 13.3002C5.91932 13.3002 4.15251 11.9734 3.48691 10.1218L0.878098 12.1318C2.2021 14.7226 4.89091 16.5003 8.00013 16.5003Z" fill="#4CAF50"/>
<path d="M15.8444 6.93335H15.2V6.90015H8V10.1002H12.5212C12.2044 10.995 11.6288 11.7666 10.8864 12.3286C10.8868 12.3282 10.8872 12.3282 10.8876 12.3278L13.3636 14.423C13.1884 14.5822 16 12.5002 16 8.50015C16 7.96375 15.9448 7.44015 15.8444 6.93335Z" fill="#1976D2"/>
</svg>
